<svg width="100" height="26" viewBox="0 0 100 26" fill="none" xmlns="http://www.w3.org/2000/svg">
<path d="M12.159 19.7232C8.63608 19.7232 5.76996 16.8285 5.76996 13.27C5.76996 9.71184 8.63608 6.81677 12.159 6.81677C15.681 6.81677 18.5471 9.71184 18.5471 13.27C18.5471 16.8285 15.681 19.7232 12.159 19.7232ZM12.1592 0.988281C5.45463 0.988281 -0.000244141 6.49767 -0.000244141 13.2697C-0.000244141 20.0423 5.45463 25.552 12.1592 25.552C18.863 25.552 24.3173 20.0423 24.3173 13.2697C24.3173 6.49767 18.863 0.988281 12.1592 0.988281Z" fill="white"/>
<path d="M38.6996 14.0342H32.0903V6.67022H38.6996C40.9799 6.67022 41.6752 8.83867 41.6752 10.3522C41.6752 11.9126 40.9799 14.0342 38.6996 14.0342ZM47.4182 10.3522C47.4182 5.07177 43.8472 0.993375 38.7265 0.993375H26.6348V25.5314H32.0894L32.0903 19.7111H38.7265C43.6635 19.7111 47.4182 15.6602 47.4182 10.3522Z" fill="white"/>
<path d="M74.3941 11.7916H63.5629V16.185H68.5265C68.1309 18.1216 66.1128 19.8574 63.0702 19.8574C59.4711 19.8574 56.5426 16.8997 56.5426 13.2648C56.5426 9.62876 59.4711 6.78082 63.0702 6.78082C64.8358 6.78082 66.491 7.37717 67.7327 8.65973L68.0083 8.94488L72.7079 5.77959L72.3653 5.36856C70.0498 2.58796 66.6612 0.993317 63.0702 0.993317C56.3722 0.993317 50.9226 6.49831 50.9226 13.2648C50.9226 20.0307 56.3722 25.5345 63.0702 25.5345C69.0322 25.5345 73.3087 22.0677 74.2298 16.4869C74.457 15.1074 74.5178 14.4074 74.4776 13.2648C74.4538 12.5838 74.4205 12.0979 74.3941 11.7916Z" fill="white"/>
<path d="M99.905 11.7948H89.0735V16.1879H94.0371C93.6421 18.1245 91.6234 19.8605 88.5805 19.8605C84.9817 19.8605 82.0533 16.9028 82.0533 13.2676C82.0533 9.6316 84.9817 6.78366 88.5805 6.78366C90.3458 6.78366 92.0011 7.3803 93.2435 8.66257L93.5192 8.94772L98.2188 5.78243L97.8762 5.3714C95.5599 2.59109 92.1718 0.996449 88.5805 0.996449C81.8823 0.996449 76.4335 6.50115 76.4335 13.2676C76.4335 20.0338 81.8823 25.5376 88.5805 25.5376C94.5431 25.5376 98.8193 22.0708 99.7404 16.4897C99.9679 15.1105 100.028 14.4103 99.9882 13.2679C99.9644 12.5867 99.9311 12.101 99.905 11.7948Z" fill="white"/>
<path d="M47.4176 20.5523C46.0589 20.5523 44.9532 21.6692 44.9532 23.0422C44.9532 24.4147 46.0589 25.5315 47.4176 25.5315C48.7769 25.5315 49.8829 24.4147 49.8829 23.0422C49.8829 21.6692 48.7769 20.5523 47.4176 20.5523Z" fill="white"/>
</svg>
